<svg preserveAspectRatio="none" width="100%" height="100%" overflow="visible" style="display: block;" viewBox="0 0 8.51421 11.9647" fill="none" xmlns="http://www.w3.org/2000/svg">
<path id="Vector" d="M8.51403 8.52916C8.51907 9.00678 8.415 9.47924 8.20976 9.91054C8.01294 10.324 7.73639 10.6946 7.39598 11.0009C7.05221 11.3079 6.65456 11.5486 6.22316 11.7107C5.77728 11.8805 5.30393 11.9666 4.82683 11.9646L0 11.9497V0.000188676H4.30183C4.79179 -0.00437287 5.27902 0.0738079 5.74296 0.231435C6.1698 0.376208 6.56346 0.604726 6.90085 0.903595C7.23249 1.20175 7.49495 1.5688 7.66982 1.97905C7.85969 2.43039 7.95388 2.91621 7.94643 3.4058C7.94603 3.85595 7.84391 4.30018 7.64769 4.70531C7.4592 5.10929 7.18975 5.47025 6.85604 5.76583C7.11168 5.89306 7.34592 6.05936 7.55033 6.25875C7.75309 6.45602 7.92888 6.67925 8.07312 6.92261C8.2169 7.16487 8.32742 7.42538 8.40173 7.69712C8.47627 7.96818 8.51405 8.24803 8.51403 8.52916ZM5.66108 3.45061C5.66738 3.19187 5.6104 2.9355 5.49512 2.70377C5.38846 2.49866 5.23723 2.32003 5.05254 2.18098C4.86187 2.03836 4.64659 1.93204 4.41745 1.8673C4.17474 1.7971 3.92326 1.76189 3.6706 1.76274H2.31522V5.04886C2.56417 5.05882 2.78822 5.0638 2.98738 5.0638H3.67337C3.92505 5.06467 4.17589 5.03457 4.42022 4.97418C4.64765 4.91969 4.863 4.82346 5.05531 4.69038C5.24009 4.56169 5.39175 4.39107 5.49789 4.19248C5.61319 3.96263 5.66929 3.70763 5.66108 3.45061V3.45061ZM6.10919 8.39473C6.11169 8.15814 6.06319 7.9238 5.96701 7.70763C5.87754 7.50502 5.74545 7.32407 5.57976 7.17709C5.4128 7.03123 5.22039 6.9174 5.01216 6.84129C4.78941 6.76006 4.55385 6.71958 4.31676 6.72179C3.97819 6.71184 3.6446 6.70944 3.31599 6.7146C2.98738 6.71977 2.65379 6.72216 2.31522 6.72179V10.0228H4.0479C4.29951 10.0225 4.5502 9.99245 4.79474 9.93323C5.03221 9.87838 5.25735 9.77969 5.45861 9.64223C5.65109 9.50976 5.81186 9.33633 5.9294 9.13438C6.05408 8.90829 6.11562 8.6528 6.10753 8.39473H6.10919Z" fill="var(--fill-0, #191819)"/>
</svg>
