<svg preserveAspectRatio="none" width="100%" height="100%" overflow="visible" style="display: block;" viewBox="0 0 12.5921 12.5012" fill="none" xmlns="http://www.w3.org/2000/svg">
<path id="Vector" d="M12.592 6.19784C12.5952 6.88184 12.4808 7.5613 12.2539 8.20658C12.0316 8.83611 11.7061 9.42427 11.2908 9.94701L12.4857 11.127L11.1132 12.5012L9.88839 11.2615C9.37283 11.6138 8.80947 11.8904 8.21546 12.083C7.59316 12.2845 6.94269 12.3853 6.2886 12.3817C5.44955 12.3874 4.61814 12.2221 3.84503 11.896C3.10054 11.5837 2.42194 11.1332 1.84515 10.5683C1.27285 10.0063 0.81384 9.33953 0.493084 8.60434C0.161886 7.8456 -0.00605326 7.0257 0.000166666 6.19784C-0.00534679 5.36809 0.162545 4.54634 0.493084 3.78526C0.81244 3.04701 1.27156 2.37749 1.84515 1.81358C2.42244 1.2485 3.10161 0.797977 3.84669 0.485859C4.61946 0.159907 5.45047 -0.00535558 6.28915 0.000132327C7.1301 -0.00483984 7.96337 0.160384 8.7388 0.485859C9.4869 0.796628 10.1689 1.24726 10.7481 1.81358C11.3217 2.3775 11.7808 3.04701 12.1002 3.78526C12.4303 4.54643 12.5978 5.36817 12.592 6.19784V6.19784ZM10.3365 6.19784C10.3393 5.66329 10.23 5.1341 10.0156 4.6444C9.80835 4.16655 9.51465 3.73107 9.14929 3.35983C8.78146 2.98851 8.34525 2.69188 7.86472 2.4863C7.36724 2.27133 6.83052 2.16207 6.2886 2.16543C5.74913 2.1616 5.21485 2.27091 4.72022 2.4863C4.24105 2.69435 3.80528 2.99068 3.43565 3.35983C3.06709 3.72844 2.77295 4.16457 2.56931 4.6444C2.35959 5.13531 2.25283 5.66402 2.25564 6.19784C2.25283 6.73166 2.35959 7.26038 2.56931 7.75128C2.77187 8.22942 3.0662 8.66321 3.43565 9.02811C3.80689 9.39347 4.24237 9.68717 4.72022 9.89445C5.21485 10.1098 5.74913 10.2191 6.2886 10.2153C6.65491 10.217 7.01961 10.1667 7.3718 10.0659C7.71388 9.96706 8.04254 9.8266 8.35044 9.64771L7.22962 8.55787L8.60271 7.18368L9.70914 8.31888C10.1223 7.68893 10.3405 6.95116 10.3365 6.19784Z" fill="var(--fill-0, #191819)"/>
</svg>
