<svg width="118" height="32" viewBox="0 0 118 32" fill="none" xmlns="http://www.w3.org/2000/svg">
<g clip-path="url(#clip0_2149_848)">
<path d="M46.171 0H58.6755C58.7343 0.84774 58.7084 1.90463 58.7072 2.7694L58.7032 7.24066L58.702 21.4472L58.7049 28.7425C58.7061 29.2415 58.7429 31.6411 58.6744 32H45.4246C44.885 31.8348 43.7437 31.8038 43.1292 31.7067C40.5959 31.3066 38.3949 30.5244 36.303 29.0201C33.1446 26.7489 31.383 23.1782 30.8437 19.3702C30.2031 14.7711 30.7321 9.5851 33.511 5.74607C36.1111 2.15396 40.2707 0.487424 44.5495 0.107977C45.0867 0.060335 45.6383 0.0877378 46.171 0ZM43.3407 26.3307C46.328 27.0327 49.6101 26.6933 52.6735 26.743C52.5862 20.5462 52.7204 14.3218 52.665 8.12245C52.6566 7.18169 52.6541 6.22192 52.6712 5.28251C50.7732 5.26989 48.5426 5.22662 46.6634 5.28311C43.9592 5.35817 41.4702 5.84959 39.5334 7.90504C37.2574 10.3204 36.8285 13.4499 36.9018 16.6323C37.0071 21.2076 38.7399 24.947 43.3407 26.3307Z" fill="#B3B5BC"/>
<path d="M0 0H12.4151C12.9628 0.0903001 13.5228 0.0616965 14.0736 0.113152C18.369 0.514394 22.5168 2.20615 25.1042 5.83763C27.9072 9.77178 28.3694 15.1043 27.6606 19.7806C27.0869 23.3742 25.2621 26.8523 22.2707 28.9968C20.2127 30.4697 17.8214 31.4059 15.3124 31.7208C14.7219 31.7941 13.1501 31.8737 12.6713 32H0V0ZM5.92817 5.29657L5.92967 26.7451L10.2109 26.7422C13.4495 26.7442 16.2049 26.7495 18.7619 24.3416C22.5992 20.7836 22.6809 11.9206 19.1581 8.06845C17.4611 6.21274 15.063 5.36892 12.5853 5.29697C10.6613 5.25222 8.58669 5.25871 6.65726 5.28379L5.92817 5.29657Z" fill="#B3B5BC"/>
<path d="M105.628 0H118V32H104.886C104.307 31.8276 103.238 31.8097 102.593 31.7077C100.021 31.3009 97.8886 30.5159 95.7539 29.006C92.7849 26.9068 90.9008 23.295 90.3517 19.7333C89.6378 15.1007 90.1356 9.7258 92.9278 5.81857C95.0919 2.78998 98.4786 1.01643 102.085 0.375971C102.658 0.274093 103.371 0.176992 103.942 0.112846C104.493 0.0509648 105.059 0.0951821 105.628 0ZM102.745 26.3093C104.878 26.8453 105.986 26.7438 108.161 26.742L112.129 26.7395C112.056 20.5469 112.167 14.3353 112.122 8.141C112.115 7.20081 112.112 6.24687 112.128 5.30773C111.49 5.26399 110.812 5.26719 110.171 5.27574C108.827 5.29367 107.47 5.2528 106.127 5.2815C103.949 5.34593 101.876 5.64512 100.06 6.97259C97.6345 8.74634 96.6193 11.5802 96.3871 14.4832C95.9872 19.4926 97.3764 24.7694 102.745 26.3093Z" fill="#B3B5BC"/>
<path d="M88.1215 0H89.7331C89.7993 0.419174 89.7809 1.42737 89.7803 1.88266L89.7705 5.26968C88.0328 5.2884 86.9577 5.27044 85.2689 5.71744C80.9545 6.85938 79.0981 10.741 78.8607 14.9167C78.7893 16.1707 78.8665 17.5158 78.7069 18.7734C77.9774 24.3625 75.2815 28.6596 69.9635 30.7491C68.7524 31.2203 67.4905 31.5478 66.2034 31.7248C65.5218 31.814 64.7088 31.8497 64.0531 32H61.6931C61.6084 31.6462 61.6516 27.4156 61.6539 26.7522C62.6472 26.7413 63.8612 26.7635 64.8384 26.6063C69.3954 25.8728 71.8504 22.7962 72.4427 18.3199C72.562 17.3201 72.5459 16.2889 72.581 15.2854C72.7337 10.9503 74.0042 6.65225 77.3661 3.71703C79.9537 1.45802 83.0939 0.43599 86.4754 0.113751C87.0222 0.0616399 87.5817 0.0899512 88.1215 0Z" fill="#B3B5BC"/>
</g>
<defs>
<clipPath id="clip0_2149_848">
<rect width="118" height="32" fill="white"/>
</clipPath>
</defs>
</svg>
