<svg width="237" height="32" viewBox="0 0 237 32" fill="none" xmlns="http://www.w3.org/2000/svg">
<g clip-path="url(#clip0_2149_822)">
<mask id="mask0_2149_822" style="mask-type:luminance" maskUnits="userSpaceOnUse" x="0" y="0" width="237" height="32">
<path d="M237 0H0V32H237V0Z" fill="white"/>
</mask>
<g mask="url(#mask0_2149_822)">
<mask id="mask1_2149_822" style="mask-type:luminance" maskUnits="userSpaceOnUse" x="0" y="0" width="237" height="32">
<path d="M237 0H0V32H237V0Z" fill="white"/>
</mask>
<g mask="url(#mask1_2149_822)">
<path d="M30.6406 21.2816C30.6406 17.3999 27.3812 14.2529 23.3607 14.2529C19.3404 14.2529 16.0808 17.3999 16.0808 21.2816C16.0808 25.1637 19.3404 28.3106 23.3607 28.3106C27.3812 28.3106 30.6406 25.1637 30.6406 21.2816Z" fill="#B3B5BC"/>
<path d="M7.64618 0L0 10.5433V32H12.2608V10.5433H34.4837L42.13 0H7.64618Z" fill="#B3B5BC"/>
<path d="M151.997 27.8831C151.997 29.5941 150.557 30.9812 148.78 30.9812C147.004 30.9812 145.563 29.5941 145.563 27.8831C145.563 26.1722 147.004 24.7852 148.78 24.7852C150.557 24.7852 151.997 26.1722 151.997 27.8831Z" fill="#B3B5BC"/>
<path d="M49.9954 31.1101V13.7327H45.363V9.86634H49.9954V7.91192C49.9954 6.46735 50.3336 5.16439 51.0102 4.00307C51.6866 2.81343 52.6572 1.89285 53.9219 1.24138C55.2161 0.561581 56.7309 0.22168 58.4663 0.22168C59.9662 0.22168 61.2898 0.533256 62.4368 1.15641V5.19272C61.4368 4.65455 60.2309 4.38546 58.8192 4.38546C57.5837 4.38546 56.6279 4.71119 55.9515 5.36267C55.2749 5.98581 54.9367 6.84973 54.9367 7.9544V9.86634H61.2456V13.7327H54.9367V31.1101H49.9954Z" fill="#B3B5BC"/>
<path d="M64.2209 31.1101V9.52641H68.9416V12.3731C70.9122 10.2487 73.28 9.18652 76.0447 9.18652C76.7211 9.18652 77.3242 9.27148 77.8536 9.44144V13.9026C77.4124 13.8177 76.883 13.7752 76.2652 13.7752C74.8829 13.7752 73.574 14.0301 72.3387 14.5399C71.1329 15.0498 70.074 15.7438 69.1622 16.6218V31.1101H64.2209Z" fill="#B3B5BC"/>
<path d="M90.6898 31.4075C88.484 31.4075 86.4693 30.9259 84.6457 29.9629C82.8515 28.9999 81.4398 27.6685 80.4103 25.9692C79.3809 24.2696 78.8661 22.3576 78.8661 20.2333C78.8661 18.2221 79.3662 16.3669 80.3662 14.6674C81.3956 12.9679 82.7928 11.6366 84.5575 10.6736C86.3221 9.6822 88.2633 9.18652 90.3811 9.18652C92.5282 9.18652 94.3958 9.65388 95.9841 10.5886C97.5723 11.5233 98.793 12.7696 99.6459 14.3275C100.499 15.8571 100.925 17.4858 100.925 19.2136C100.925 20.0066 100.837 20.7856 100.661 21.5504H83.8956C84.131 23.1931 84.8369 24.5245 86.0134 25.5442C87.2192 26.5639 88.7781 27.0738 90.6898 27.0738C91.9251 27.0738 92.9988 26.8471 93.9105 26.3939C94.8223 25.9407 95.5429 25.3176 96.0723 24.5245H100.793C100.234 26.5072 99.0282 28.1501 97.1753 29.453C95.3517 30.756 93.1899 31.4075 90.6898 31.4075ZM96.1605 18.1514C96.0135 16.7634 95.4252 15.6163 94.3958 14.7099C93.3663 13.8035 92.0135 13.3503 90.3369 13.3503C88.6899 13.3503 87.278 13.8177 86.1016 14.7524C84.9544 15.6588 84.2486 16.7917 83.9838 18.1514H96.1605Z" fill="#B3B5BC"/>
<path d="M114.449 31.3658C112.037 31.3658 110.11 30.7143 108.669 29.4114C107.257 28.0801 106.552 26.1399 106.552 23.5906V13.3936H102.095V9.52724H106.552V4.17383H111.537V9.52724H118.287V13.3936H111.537V23.4207C111.537 24.6953 111.846 25.6725 112.463 26.3522C113.11 27.0037 113.978 27.3295 115.066 27.3295C116.272 27.3295 117.478 27.1029 118.684 26.6497V30.4735C117.39 31.0684 115.978 31.3658 114.449 31.3658Z" fill="#B3B5BC"/>
<path d="M131.973 31.4075C129.767 31.4075 127.752 30.9259 125.928 29.9629C124.134 28.9999 122.722 27.6685 121.693 25.9692C120.664 24.2696 120.149 22.3576 120.149 20.2333C120.149 18.2221 120.649 16.3669 121.649 14.6674C122.678 12.9679 124.075 11.6366 125.84 10.6736C127.605 9.6822 129.546 9.18652 131.664 9.18652C133.811 9.18652 135.679 9.65388 137.267 10.5886C138.855 11.5233 140.076 12.7696 140.929 14.3275C141.782 15.8571 142.208 17.4858 142.208 19.2136C142.208 20.0066 142.12 20.7856 141.943 21.5504H125.178C125.414 23.1931 126.12 24.5245 127.296 25.5442C128.502 26.5639 130.061 27.0738 131.973 27.0738C133.208 27.0738 134.281 26.8471 135.193 26.3939C136.105 25.9407 136.826 25.3176 137.355 24.5245H142.076C141.517 26.5072 140.311 28.1501 138.458 29.453C136.635 30.756 134.473 31.4075 131.973 31.4075ZM137.443 18.1514C137.296 16.7634 136.708 15.6163 135.679 14.7099C134.649 13.8035 133.296 13.3503 131.62 13.3503C129.973 13.3503 128.561 13.8177 127.384 14.7524C126.237 15.6588 125.531 16.7917 125.267 18.1514H137.443Z" fill="#B3B5BC"/>
<path d="M165.793 31.4504C163.674 31.4504 161.733 30.969 159.969 30.0058C158.233 29.0427 156.866 27.7256 155.866 26.0546C154.866 24.355 154.366 22.4714 154.366 20.4037C154.366 18.3643 154.866 16.509 155.866 14.8378C156.866 13.1383 158.233 11.807 159.969 10.844C161.733 9.88093 163.674 9.39941 165.793 9.39941C167.557 9.39941 169.175 9.75348 170.645 10.4616C172.117 11.1697 173.322 12.1328 174.262 13.3507C175.234 14.5687 175.896 15.9 176.248 17.3446H172.631C172.248 15.9 171.425 14.7528 170.16 13.9031C168.895 13.025 167.439 12.586 165.793 12.586C164.321 12.586 162.984 12.9259 161.778 13.6057C160.601 14.2855 159.675 15.2344 158.998 16.4523C158.322 17.6419 157.983 18.959 157.983 20.4037C157.983 21.8766 158.322 23.2221 158.998 24.44C159.675 25.6296 160.601 26.5643 161.778 27.2442C162.984 27.924 164.321 28.2638 165.793 28.2638C167.469 28.2638 168.925 27.8248 170.16 26.9467C171.425 26.0403 172.293 24.879 172.763 23.4627H176.336C176.013 24.9357 175.337 26.2811 174.307 27.499C173.308 28.7171 172.072 29.6802 170.602 30.3882C169.13 31.0963 167.527 31.4504 165.793 31.4504Z" fill="#B3B5BC"/>
<path d="M190.428 31.4504C188.309 31.4504 186.368 30.969 184.604 30.0058C182.868 29.0427 181.486 27.7256 180.456 26.0546C179.457 24.355 178.956 22.4714 178.956 20.4037C178.956 18.3643 179.457 16.509 180.456 14.8378C181.486 13.1383 182.868 11.807 184.604 10.844C186.368 9.88093 188.309 9.39941 190.428 9.39941C192.545 9.39941 194.486 9.88093 196.25 10.844C198.015 11.807 199.399 13.1383 200.398 14.8378C201.428 16.509 201.942 18.3643 201.942 20.4037C201.942 22.4714 201.428 24.355 200.398 26.0546C199.399 27.7256 198.015 29.0427 196.25 30.0058C194.516 30.969 192.574 31.4504 190.428 31.4504ZM190.428 28.2638C191.898 28.2638 193.237 27.924 194.442 27.2442C195.648 26.5643 196.588 25.6296 197.266 24.44C197.972 23.2221 198.324 21.8624 198.324 20.3611C198.324 18.9166 197.972 17.5995 197.266 16.4099C196.588 15.2202 195.648 14.2855 194.442 13.6057C193.237 12.9259 191.898 12.586 190.428 12.586C188.987 12.586 187.662 12.9259 186.457 13.6057C185.251 14.2855 184.295 15.2202 183.589 16.4099C182.913 17.5995 182.575 18.9307 182.575 20.4037C182.575 21.8766 182.913 23.2221 183.589 24.44C184.295 25.6296 185.251 26.5643 186.457 27.2442C187.662 27.924 188.987 28.2638 190.428 28.2638Z" fill="#B3B5BC"/>
<path d="M206.337 31.1106V9.73932H209.824V12.416C211.617 10.4049 213.764 9.39941 216.264 9.39941C217.529 9.39941 218.676 9.69682 219.705 10.2917C220.764 10.8582 221.589 11.6513 222.176 12.671C223.147 11.5946 224.205 10.7873 225.353 10.2492C226.529 9.68266 227.868 9.39941 229.368 9.39941C230.838 9.39941 232.146 9.72514 233.295 10.3766C234.441 10.9998 235.338 11.9203 235.985 13.1383C236.662 14.328 237 15.7159 237 17.3021V31.1106H233.426V17.897C233.426 16.1691 233.029 14.852 232.236 13.9456C231.442 13.0392 230.308 12.586 228.838 12.586C227.779 12.586 226.75 12.8692 225.751 13.4357C224.779 14.0022 223.97 14.767 223.323 15.7301C223.411 16.0699 223.456 16.4666 223.456 16.9197V31.1106H219.882V17.472C219.882 16.0275 219.5 14.852 218.735 13.9456C218 13.0392 216.926 12.586 215.515 12.586C214.456 12.586 213.412 12.8834 212.382 13.4782C211.382 14.073 210.559 14.8237 209.912 15.7301V31.1106H206.337Z" fill="#B3B5BC"/>
</g>
</g>
</g>
<defs>
<clipPath id="clip0_2149_822">
<rect width="237" height="32" fill="white"/>
</clipPath>
</defs>
</svg>
