<svg width="67" height="32" viewBox="0 0 67 32" fill="none" xmlns="http://www.w3.org/2000/svg">
<g clip-path="url(#clip0_2149_859)">
<path d="M0 14.2094C0.098596 13.9785 0.0929772 13.3923 0.146942 13.1108C0.251286 12.5665 0.352637 11.8314 0.530923 11.3143C0.752232 10.673 0.944585 9.99351 1.20398 9.36761C3.52008 3.77918 8.74474 0.61289 14.6351 0.146984C15.9606 0.0421438 17.4499 0.147783 18.7923 0.109339C19.1877 0.0980129 20.976 0.0623989 21.264 0.151988C21.3853 0.469071 21.2928 3.39161 21.3332 3.96915L17.5643 3.96217C16.5655 3.96158 15.5546 3.92443 14.5608 4.02108C10.503 4.41564 7.2588 6.32987 5.29666 9.93839C3.918 12.525 3.48155 15.5121 4.0623 18.3863C4.61881 21.3165 6.30893 23.9072 8.76398 25.5935C10.1375 26.5188 11.4859 27.0662 13.102 27.3479C13.6566 27.4445 13.9138 27.5612 14.5479 27.6153C15.6331 27.708 16.6566 27.685 17.744 27.6849L21.6343 27.6856L24.1873 27.6874C24.6802 27.6875 25.2997 27.7113 25.7806 27.635C26.1102 27.5828 26.7922 27.1208 27.0349 26.8745C27.1662 26.7063 27.2834 26.4782 27.3461 26.2729C27.5732 25.5302 27.4989 24.6124 27.4981 23.8381L27.4958 21.5638L27.4946 11.3128L27.495 8.00915C27.4951 7.54967 27.419 5.96062 27.6689 5.6623C28.4802 4.694 29.1434 6.15328 29.5121 6.75453L31.124 9.40082L38.6303 21.4507C39.7417 23.2273 40.8651 25.0436 41.9476 26.8389C42.0468 27.0036 42.2479 27.1061 42.3693 27.2384C43.2291 28.1759 44.7644 27.6802 45.154 26.5651C45.3984 25.866 45.3186 24.6668 45.3166 23.8637L45.3137 21.5039L45.3163 11.4296L45.3127 8.12958C45.312 7.53643 45.2312 6.23997 45.4507 5.64836C45.4936 5.5322 45.7857 5.3801 45.9225 5.36889C46.6677 5.30777 46.988 6.28348 47.307 6.79312L49.2198 9.87833L56.7841 22.0686L58.6113 25.0019C59.0061 25.6503 59.4 26.3432 59.8515 26.9568C60.0095 27.1716 60.5035 27.4795 60.7439 27.6594C60.8902 27.6773 61.0371 27.6933 61.184 27.7075C61.5949 27.7449 61.9868 27.7065 62.2966 27.4189C62.7683 26.9814 62.9784 26.8789 63.0834 26.2098C63.2038 25.4417 63.1629 24.608 63.1622 23.8318L63.1596 20.1624L63.1603 6.62079L63.1593 2.37617C63.1586 1.73123 63.1233 0.7199 63.1763 0.11722C63.7619 0.0775477 64.6377 0.119512 65.2534 0.105546C65.6142 0.0973598 66.6859 0.0835385 67 0.123068V27.0766L66.9902 27.1063C66.8629 27.4986 66.8587 27.977 66.7177 28.4058C66.0784 30.3515 64.3576 31.775 62.3064 31.9357C62.2135 31.9428 62.1075 31.9662 62.0188 31.9996H61.587C61.4179 31.95 61.0403 31.9094 60.8499 31.8813C60.494 31.8292 60.141 31.7564 59.7932 31.6633C57.3177 30.9871 56.1168 28.8795 54.8991 26.8398L53.1541 23.9328C51.8416 21.7047 50.4855 19.5502 49.1969 17.2953C49.2421 17.9033 49.2306 18.6801 49.2319 19.2966L49.2339 22.4101L49.2355 25.057C49.2355 25.8315 49.2355 26.4981 49.1498 27.2691C48.9071 29.458 47.3865 31.3513 45.2047 31.8128C44.7938 31.8997 44.3639 31.9061 43.9589 31.9996H43.8114C43.6118 31.9476 43.1577 31.901 42.935 31.8684C42.5303 31.8065 42.1318 31.7107 41.7428 31.5822C39.2663 30.7593 38.1341 28.5543 36.8808 26.4735L34.1972 21.9788C33.3119 20.4754 32.2351 18.9109 31.4589 17.3597C31.5046 19.2267 31.5191 21.0942 31.5024 22.9616C31.5021 24.9439 31.6198 27.0078 30.67 28.8356C30.0453 30.0378 28.8017 30.9239 27.5316 31.3283C26.5169 31.6514 25.2684 31.6045 24.205 31.6051L21.3808 31.6056C19.4758 31.6054 17.5411 31.6229 15.6392 31.5782C14.8905 31.5607 13.791 31.4451 13.043 31.3121C11.2191 30.9726 9.45691 30.3584 7.81633 29.4904C4.90775 27.94 2.52308 25.1656 1.23631 22.1478C0.910353 21.3928 0.721601 20.5446 0.439023 19.7806C0.143082 18.9805 0.232948 17.8527 0.00418848 17.1203L0 17.1072V14.2094Z" fill="#B3B5BC"/>
<path d="M27.2534 0H28.7533C28.9705 0.109664 29.3331 0.11749 29.5795 0.20269C30.4398 0.500161 31.2206 0.923603 31.9169 1.50993C33.3163 2.68819 34.0952 4.27275 34.9939 5.82757L37.5319 10.2209L39.1022 12.9477C39.5095 13.6483 39.942 14.3654 40.2796 15.1022C40.2171 14.4775 40.2338 13.7445 40.2318 13.1048L40.2292 10.0164L40.2289 7.17856C40.2292 5.26479 40.2112 3.61921 41.4995 2.03847C42.1996 1.1636 43.1494 0.523705 44.2221 0.204321C44.401 0.149436 44.9444 0.0641223 45.0576 0H46.5818C46.6724 0.0618377 47.3869 0.204117 47.6179 0.290981C48.7613 0.724131 49.7777 1.43886 50.573 2.36926C51.4085 3.32797 51.986 4.47079 52.6232 5.55715L55.1639 9.9298L57.1477 13.3301C57.4657 13.882 57.8409 14.4739 58.1 15.0436C58.0451 14.5193 58.0529 13.9369 58.05 13.405L58.047 10.9717L58.0467 3.52564C58.0467 3.14015 58.016 0.39658 58.0441 0.312416C58.0703 0.233469 58.1141 0.17533 58.191 0.139195C58.2502 0.111275 58.3117 0.0988374 58.3771 0.0972085C58.7956 0.0867718 61.7065 0.069399 61.9417 0.149096C62.0301 0.4116 61.9967 2.58764 61.9967 3.05406V8.24957L61.9961 19.7252C61.9961 21.6354 61.9983 23.552 61.9947 25.4626C61.9944 25.623 61.963 25.8752 61.9015 26.0165C61.7641 26.3328 61.6264 26.4001 61.3418 26.5269C61.1599 26.4589 60.8788 26.3435 60.7696 26.1816C60.4742 25.7438 60.1611 25.2359 59.8889 24.7876L58.3974 22.3686L51.6205 11.4938L49.0478 7.32616C48.545 6.50357 47.7599 4.89971 46.9528 4.39554C46.0718 3.84498 44.5895 4.29341 44.2973 5.36452C44.0929 6.11554 44.1524 6.93928 44.1534 7.72948L44.156 10.0527V20.1695L44.1573 23.5244C44.1573 24.2111 44.1678 24.8974 44.1403 25.5838C44.1171 26.1599 44.0346 26.3455 43.4814 26.5074C42.8242 26.1793 42.7054 25.7677 42.3351 25.1625L41.4446 23.7213C40.8246 22.6951 40.151 21.6498 39.5154 20.6283L31.9435 8.44095C31.5888 7.87246 31.2346 7.29685 30.8909 6.72167C30.5785 6.19885 29.943 5.01246 29.5484 4.64357C29.1982 4.31626 28.6574 4.13705 28.1835 4.15439C27.4609 4.18079 26.7818 4.60007 26.5125 5.28813C26.2039 6.07679 26.3275 9.03656 26.3276 10.0291L26.3265 20.5611L26.329 23.7705C26.3303 25.1216 26.7125 26.4812 24.9143 26.4516C22.9771 26.4697 21.0024 26.4091 19.0698 26.4468C14.9645 26.5271 11.1658 26.5603 8.02667 23.4266C4.00611 19.4131 4.03235 12.3079 7.9791 8.24541C8.88821 7.30331 9.98632 6.56515 11.201 6.07957C11.6048 5.91669 12.036 5.72951 12.4557 5.61675C14.0968 5.17577 15.7342 5.20738 17.4205 5.20905C18.7218 5.22056 20.0232 5.21253 21.3243 5.18502C21.3062 6.47466 21.3053 7.76449 21.3214 9.0542C19.0267 9.14351 16.6507 8.88672 14.3703 9.19207C13.8607 9.26033 13.1553 9.54918 12.6754 9.76656C9.31295 11.2898 8.06988 15.4025 9.46589 18.7086C10.5255 21.0108 12.9423 22.395 15.4146 22.5401C17.4098 22.6422 19.4039 22.5594 21.4057 22.5875C22.7054 22.6057 22.4285 21.0242 22.4534 20.1648C22.4698 19.5979 22.4508 19.0111 22.4504 18.4434L22.4517 9.65793L22.4505 6.94059C22.4485 5.27112 22.3863 4.04102 23.3501 2.55221C24.1077 1.38205 24.915 0.751354 26.2479 0.25873C26.5364 0.152093 27.0281 0.108522 27.2534 0Z" fill="#B3B5BC"/>
</g>
<defs>
<clipPath id="clip0_2149_859">
<rect width="67" height="32" fill="white"/>
</clipPath>
</defs>
</svg>
