<svg width="107" height="32" viewBox="0 0 107 32" fill="none" xmlns="http://www.w3.org/2000/svg">
<path d="M0.0153509 1.46998C2.50453 1.53316 5.05125 1.38502 7.52805 1.49537C11.6806 1.68037 14.8464 5.68217 14.4177 9.77369C14.1673 12.1629 13.0815 13.7702 11.278 15.2835C11.8207 15.8704 12.698 17.1808 13.2126 17.8694L17.4157 23.4885C16.0886 23.5023 14.7614 23.5087 13.4343 23.5071L12.2321 23.5081C10.438 21.2499 8.82084 18.9666 7.09055 16.6663L4.17746 16.676L4.17844 23.5051C2.87271 23.4733 1.31979 23.4865 0.0231634 23.5198C-0.0226336 20.9989 0.0136594 18.3669 0.0133978 15.8391L0.0153509 1.46998ZM8.97043 6.36744C7.77557 5.42931 5.69912 5.66608 4.17746 5.67701L4.18625 12.4719C6.09951 12.4802 7.89656 12.8107 9.28586 11.4319C9.97532 10.5732 10.3496 9.82215 10.2282 8.67604C10.1333 7.76791 9.68031 6.9359 8.97043 6.36744Z" fill="#B3B5BC"/>
<path d="M22.6292 5.49044C23.9179 5.41208 24.8257 5.38807 26.0657 5.92403C26.4345 6.08347 26.9849 6.4114 27.3499 6.47383C27.533 6.28508 27.2976 6.17127 27.4905 5.90059C28.5498 5.8117 30.2792 5.87259 31.3899 5.88106L31.387 23.5061C30.3908 23.5037 28.3851 23.5641 27.4905 23.4582C27.2925 23.2056 27.5213 23.0887 27.3391 22.8244C27.1985 22.8482 26.0183 23.475 25.6262 23.6262C25.3753 23.702 24.9701 23.8286 24.7141 23.8576C13.8569 25.0836 12.3198 7.23534 22.6292 5.49044ZM25.4016 10.217C24.581 9.69352 23.8934 9.69506 22.97 9.75411C21.3447 10.2419 20.7883 10.9419 20.137 12.5666C19.004 15.3933 20.5094 20.2244 24.2522 19.6301C28.0728 18.809 28.4467 12.1595 25.4016 10.217Z" fill="#B3B5BC"/>
<path d="M83.5166 5.43155C85.5121 5.46845 87.408 6.31643 88.7714 7.78311C91.0604 10.2323 91.0573 12.7689 90.958 15.8886C87.2625 15.9394 83.072 15.9392 79.3798 15.8856C79.4645 16.2327 79.5496 16.5857 79.6601 16.9218C80.4173 19.2147 82.8594 20.972 85.2158 19.7763C86.12 19.3174 86.5714 18.7422 87.1962 17.994C87.9381 18.3498 88.5646 18.7109 89.2753 19.12C89.7927 19.4264 90.24 19.7169 90.7402 20.0517C90.4728 20.4055 90.186 20.7919 89.8974 21.1259C88.4551 22.7795 86.4222 23.7931 84.2412 23.9462C82.135 24.0852 80.0313 23.2975 78.4394 21.9052C72.9716 17.1227 74.9393 5.87306 82.9472 5.43643C83.1364 5.42944 83.3267 5.42802 83.5166 5.43155ZM82.8935 9.21768C80.9469 9.64342 80.1458 10.5427 79.5488 12.4022L83.5166 12.4052L86.7832 12.3993C86.3688 11.1822 86.0553 10.1995 84.8056 9.58682C84.253 9.31603 83.5071 9.16005 82.8935 9.21768Z" fill="#B3B5BC"/>
<path d="M33.639 0C34.9392 0.0400523 36.4298 0.00493117 37.7456 0.00626402L37.7368 11.937C38.6825 10.9205 39.8599 9.25014 40.7707 8.12014C41.3749 7.37041 41.7989 6.61742 42.5197 5.89381C44.2394 5.82004 46.3809 5.87609 48.1252 5.87549C47.1465 6.96023 46.1807 8.23523 45.2533 9.37122L41.2802 14.1466C41.9238 14.8195 42.6185 15.6911 43.2295 16.4117C44.368 17.7306 45.4896 19.0642 46.594 20.4122C47.4673 21.4485 48.3558 22.4718 49.2593 23.4815C47.5021 23.5227 45.3505 23.5489 43.6026 23.4895C43.1166 22.8286 42.4972 22.2217 42.0219 21.5903C40.649 19.7664 39.2002 18.0709 37.7457 16.3142L37.7437 23.5045C36.3788 23.4932 35.0138 23.4989 33.6489 23.5217C33.6049 20.821 33.6399 18.0273 33.6397 15.3162L33.639 0Z" fill="#B3B5BC"/>
<path d="M77.0194 26.8097C78.6809 26.7413 80.537 26.8145 82.2196 26.7897C83.1748 26.7757 85.003 26.6928 85.8907 26.7889C84.6813 26.9705 83.8446 27.0551 82.6247 27.1164C77.7767 27.622 72.7744 27.9982 67.9092 28.4302L42.8339 30.5814C39.1146 30.8731 35.3725 31.2725 31.6511 31.5736C29.9576 31.7106 28.2395 31.917 26.5423 31.9997C24.9465 30.5496 22.8882 28.3656 21.3486 26.7822C23.1153 26.87 25.4267 26.8009 27.2422 26.8009L38.5152 26.8005L77.0194 26.8097Z" fill="#B3B5BC"/>
<path d="M77.0193 26.8097C78.6807 26.7413 80.5368 26.8145 82.2194 26.7897C83.1746 26.7757 85.0029 26.6928 85.8905 26.7889C84.6812 26.9705 83.8445 27.0551 82.6246 27.1164L82.6007 27.0065C82.2525 26.6541 77.8315 26.9313 77.0193 26.8097Z" fill="#B3B5BC"/>
<path d="M98.9672 5.49185C99.326 5.4662 99.6861 5.453 100.046 5.4524C101.828 5.43681 103.542 6.13742 104.81 7.3989C107.385 9.99537 106.975 13.2351 106.977 16.5873L106.983 23.5208C105.694 23.501 104.299 23.4779 103.019 23.526C102.971 21.1376 103.043 18.7004 103.016 16.3074C102.963 15.0816 103.118 13.8041 102.92 12.5888C102.612 10.6911 101.9 9.98791 100.132 9.59978C100.07 9.59758 100.008 9.59571 99.9455 9.59431C98.6309 9.56519 97.5149 10.1159 96.9423 11.3259C96.3009 12.6798 96.5174 14.8502 96.522 16.3578L96.5214 23.5046C95.1869 23.4906 93.8531 23.4919 92.5186 23.5086C92.4478 18.947 92.555 14.3585 92.5074 9.79538C92.4941 8.50197 92.4915 7.16672 92.5345 5.87492C93.0674 5.87632 96.0097 5.83007 96.3585 5.89824C96.528 6.04832 96.477 5.97568 96.5094 6.25698L96.5869 6.3063C97.2164 6.16775 98.0147 5.71111 98.9672 5.49185Z" fill="#B3B5BC"/>
<path d="M59.324 5.87658L63.2943 5.87445L63.2936 10.7056L63.3002 23.5174C62.0101 23.5052 60.72 23.5026 59.4292 23.5097C59.2968 23.3602 59.3313 23.2866 59.3088 23.0531C59.2313 22.9922 59.2187 22.9675 59.1075 23.0193C57.9544 23.5568 57.3388 23.9407 55.9911 23.9518C54.0922 23.9669 52.2657 23.2195 50.9156 21.875C48.5152 19.4429 48.856 16.4 48.8639 13.2854L48.8667 5.87305L52.836 5.88244L52.8285 13.0303C52.8276 14.0428 52.7588 16.3425 52.9556 17.235C53.097 17.8501 53.4009 18.4153 53.8353 18.8708C54.4354 19.482 55.2557 19.8229 56.109 19.816C57.9809 19.815 59.2631 18.1141 59.2962 16.3419C59.3187 15.1445 59.3306 13.973 59.3299 12.7744L59.324 5.87658Z" fill="#B3B5BC"/>
<path d="M66.8707 1.47428L70.8404 1.47168L70.841 5.87816C71.9882 5.8725 73.1353 5.87343 74.2824 5.88102L74.2804 10.0091L70.8377 10.0071L70.8331 15.451C70.8324 16.039 70.796 17.516 70.8728 18.0249C70.9264 18.3959 71.0767 18.7459 71.309 19.0388C71.63 19.4409 72.1 19.6935 72.6104 19.7376C73.1485 19.7881 73.6218 19.6348 74.0342 19.2901C74.7617 20.3352 75.6824 21.5085 76.4642 22.5262L76.6568 22.7515L76.6389 22.877C76.0868 23.431 73.778 23.9521 72.8804 23.964C71.268 23.9784 69.7171 23.3363 68.5812 22.1835C66.5993 20.2117 66.8608 17.8126 66.8615 15.2818L66.8635 10.0069L64.7585 10.0089C64.7532 8.63077 64.7552 7.2526 64.7645 5.8745L66.8674 5.87356C66.8608 4.40715 66.8621 2.94068 66.8707 1.47428Z" fill="#B3B5BC"/>
</svg>
