<svg width="147" height="32" viewBox="0 0 147 32" fill="none" xmlns="http://www.w3.org/2000/svg">
<path d="M65.38 7.35102C67.8465 6.97525 70.1603 7.93402 71.7416 9.82619L71.7683 7.8283C73.1644 7.79571 74.6535 7.81849 76.0568 7.81517L76.0552 18.6251C76.056 20.4963 76.0471 22.3246 76.0309 24.2392C75.9621 32.4381 64.5691 34.3707 59.922 28.9325C59.6771 28.6459 59.2812 28.2489 59.3084 27.8495C59.48 27.6012 59.876 27.3909 60.1449 27.2247C60.9937 26.795 62.0408 26.1612 62.9068 25.6925C63.1273 26.0561 63.3827 26.4309 63.6782 26.7367C65.2984 28.4129 69.009 28.5228 70.6688 26.8553C71.8963 25.6218 71.7772 23.77 71.7586 22.1494C71.5291 22.4035 71.2854 22.6781 71.0365 22.912C68.3986 25.3902 64.144 25.0816 61.372 23.0133C59.5745 21.6652 58.3858 19.6574 58.0674 17.4316C57.3451 12.4502 60.3177 8.07954 65.38 7.35102ZM68.2639 20.5181C70.7506 19.8439 72.2267 17.286 71.5686 14.7923C70.9103 12.2987 68.3644 10.8051 65.8698 11.4491C63.3538 12.0987 61.8464 14.6743 62.5103 17.1894C63.1743 19.7045 65.7559 21.1981 68.2639 20.5181Z" fill="#B3B5BC"/>
<path d="M44.9187 7.27734C45.215 7.28618 45.531 7.2964 45.8254 7.32234C47.6281 7.46892 49.2985 8.32773 50.4678 9.70922L50.4875 7.81883C51.9152 7.78259 53.4414 7.80489 54.8769 7.80043L54.8787 18.7568C54.8791 20.6625 54.8309 22.8631 54.9086 24.7435L50.4853 24.7412L50.4792 22.7811C50.0862 23.2046 49.7616 23.4943 49.3323 23.8751C46.331 25.8575 42.4251 25.591 39.7569 23.1443C34.1649 18.016 36.781 7.71546 44.9187 7.27734ZM46.47 20.9456C49.0665 20.5918 50.8854 18.1982 50.5333 15.5985C50.1811 12.9986 47.7913 11.1764 45.1945 11.5277C42.5958 11.8792 40.7742 14.274 41.1266 16.8755C41.479 19.4771 43.8717 21.2997 46.47 20.9456Z" fill="#B3B5BC"/>
<path d="M104.697 7.2793C104.919 7.28976 105.141 7.30256 105.363 7.31789C107.598 7.47428 109.677 8.51696 111.141 10.2146C113.218 12.634 113.361 15.1073 113.133 18.1114C109 18.0375 104.483 18.0588 100.346 18.1163C101.038 20.045 102.435 21.0573 104.488 21.1718C106.487 21.2832 107.471 20.8751 108.947 19.5515L111.341 20.9208C111.517 21.0537 112.234 21.4151 112.466 21.538C110.675 23.9111 108.464 25.0632 105.471 25.2026C103.012 25.3173 100.385 24.5374 98.544 22.8668C94.9949 19.6459 94.8612 13.5455 98.0865 10.0571C99.868 8.12335 102.111 7.39004 104.697 7.2793ZM100.332 14.623L105.423 14.617L108.902 14.6224C108.102 12.0073 106.553 11.1228 103.896 11.325C101.913 11.7537 100.853 12.5692 100.332 14.623Z" fill="#B3B5BC"/>
<path d="M129.536 7.81751C130.866 7.80429 132.195 7.80129 133.524 7.80851C135.249 11.6943 136.612 16.6898 138.312 20.6276C138.698 19.2467 139.528 17.1664 140.034 15.7771L142.941 7.81378C144.295 7.80048 145.648 7.8034 147 7.8227C146.561 8.82606 146.149 9.92695 145.729 10.9504C145.308 12.3146 144.232 14.845 143.678 16.2714C142.607 19.0354 141.504 22.0224 140.36 24.7403C138.985 24.7449 137.511 24.7728 136.146 24.7228C135.913 24.0229 135.546 23.1619 135.263 22.474C133.279 17.6407 131.564 12.623 129.536 7.81751Z" fill="#B3B5BC"/>
<path d="M123.77 3.03027L123.818 3.04925C123.974 3.31419 123.903 7.17392 123.901 7.81294L128.085 7.80492C128.087 8.99361 128.083 10.1822 128.07 11.3708C126.989 11.2706 125.02 11.3413 123.905 11.3591L123.899 16.7436C123.89 21.1173 123.375 21.5913 128.083 21.4189C128.081 22.4737 128.051 23.6931 128.112 24.7341C127.506 24.7222 126.499 24.8142 125.829 24.8341C120.095 24.8306 120.202 21.7634 120.206 17.2314L120.218 11.3577C119.284 11.3049 118.041 11.3322 117.114 11.3537C117.1 10.1753 117.101 8.99677 117.116 7.81829C118.127 7.79349 119.192 7.81189 120.208 7.81319L120.212 4.14617C121.315 3.73634 122.606 3.4294 123.77 3.03027Z" fill="#B3B5BC"/>
<path d="M88.3679 0.0115129C89.7987 0.0188095 91.2296 0.0149985 92.6604 0C92.7625 8.19861 92.6434 16.5378 92.6718 24.7546C91.3818 24.6927 89.6838 24.7431 88.363 24.7436L88.3679 0.0115129Z" fill="#B3B5BC"/>
<path d="M79.9494 7.81866C81.3536 7.77618 82.9091 7.80658 84.3238 7.80448L84.3359 24.7552C83.0824 24.6846 81.241 24.7404 79.9421 24.7382L79.9494 7.81866Z" fill="#B3B5BC"/>
<path d="M82.0597 0.392955C83.535 0.3465 84.7724 1.50171 84.8282 2.97927C84.8841 4.45691 83.7383 5.70268 82.2629 5.76851C80.7738 5.83491 79.5154 4.67484 79.4587 3.18349C79.4028 1.69215 80.5697 0.439815 82.0597 0.392955Z" fill="#B3B5BC"/>
<path d="M10.8668 1.31866C12.7043 -0.0870654 15.4815 -0.377713 17.5148 0.787146C20.551 2.52649 23.6146 4.23892 26.6071 6.0505C27.8233 6.79102 28.7343 8.25383 29.1027 9.59218C29.3449 10.4606 29.2828 11.3939 29.2827 12.2883L29.2804 16.1052L29.2779 19.6684C29.2793 21.4735 29.3807 22.3141 28.4411 23.9905C27.3587 25.9219 25.5879 26.5324 23.806 27.6338C23.1876 28.0131 22.517 28.3595 21.8938 28.7358C18.7093 30.4178 15.7472 33.2953 11.9366 31.313C9.29971 29.9396 6.79302 28.2641 4.16785 26.8594C3.62021 26.5663 3.06261 26.2404 2.5595 25.8718C2.02992 25.485 1.5622 25.0198 1.17238 24.4921C0.638832 23.7705 0.0387178 22.5297 0.122771 21.6109C-0.0588584 20.7426 0.00519369 17.7614 0.0395276 16.7233C0.108762 14.627 -0.264943 10.7733 0.450076 8.89106C0.801513 7.97664 1.36899 7.16096 2.10393 6.51383C3.06285 5.66589 5.64243 4.31529 6.85909 3.62779C7.87032 3.0563 9.8795 1.76627 10.8668 1.31866ZM6.57171 24.7262L6.56531 15.9404C6.56474 14.3718 6.50547 12.3205 6.59033 10.7801C6.56159 9.73341 6.53551 8.35265 6.57543 7.30527C5.33488 8.05893 3.43777 8.84217 3.23371 10.3355C2.94463 12.4516 3.20618 15.1145 3.13322 17.2929C3.11986 17.6905 3.15962 18.5694 3.10949 18.8925C3.17338 19.8714 3.04601 20.8458 3.2529 21.8267C3.5398 23.1869 5.39602 24.0277 6.57171 24.7262ZM10.4671 7.874C10.2555 7.9798 9.74897 8.23883 9.7395 8.51431C9.57252 13.3725 9.70872 18.2824 9.67747 23.1543C9.66451 25.174 12.448 23.0608 13.1919 22.6245L17.6782 19.991L18.5359 19.479C19.3045 19.0436 23.5333 16.8719 23.722 16.2661C23.7853 16.0631 23.668 15.6861 23.5694 15.5158C23.43 15.2751 23.0658 15.096 22.829 14.9514C20.0064 13.2286 17.0821 11.6407 14.218 9.98539C13.4526 9.54297 11.2119 8.07084 10.5301 7.88835C10.5093 7.88275 10.4881 7.87821 10.4671 7.874ZM11.1278 4.69366C13.1695 5.68251 16.4223 7.69783 18.4637 8.87679L22.3463 11.1182C22.9299 11.4547 23.845 11.9401 24.3678 12.3004C25.0089 12.6274 25.5666 13.0019 26.1701 13.3928C25.9925 11.7802 26.6221 9.78546 25.0384 8.76913C21.9944 6.81567 18.7145 4.96314 15.5188 3.25104C15.2328 3.09781 14.665 3.07909 14.3455 3.11427C14.3207 3.11703 14.2959 3.12003 14.2712 3.12311C13.3679 3.31866 11.9638 4.18509 11.1278 4.69366ZM11.1443 27.3516C11.3738 27.4719 12.1204 27.858 12.2898 27.9939C12.9415 28.4028 14.492 29.2489 15.2426 28.8701C18.3924 27.2708 21.4591 25.3763 24.5078 23.5745C24.9773 23.297 25.5272 22.7306 25.8771 22.3391C26.2027 21.9749 26.216 18.8939 25.9928 18.7522C21.8348 21.3175 17.5011 23.6433 13.2928 26.1289C12.5863 26.5462 11.8654 26.9607 11.1443 27.3516Z" fill="#B3B5BC"/>
</svg>
