<svg width="170" height="32" viewBox="0 0 170 32" fill="none" xmlns="http://www.w3.org/2000/svg">
<path d="M122.372 6.60786C122.404 6.60538 122.436 6.60361 122.469 6.60255C124.379 6.54618 127.028 6.76805 128.474 8.14154C129.138 8.76785 129.608 9.57315 129.826 10.4603C130.121 11.6959 130.001 14.2172 130.018 15.5917C130.059 18.738 129.954 21.9547 130.034 25.0994L126.067 25.0983C125.8 24.7254 125.411 23.8279 125.208 23.377C122.334 24.8664 118.707 26.5059 115.743 24.1763C114.048 22.1352 114.448 21.3401 114.429 18.8151C114.388 13.3603 121.37 14.1933 124.951 14.2089C124.956 13.8564 124.957 13.5039 124.956 13.1514C124.93 10.7032 122.936 10.6856 120.99 10.5974C119.218 10.5171 117.344 10.5796 115.564 10.6106C115.548 9.63365 115.565 8.61429 115.567 7.63381C118.708 6.85105 119.202 6.73423 122.372 6.60786ZM119.523 20.5132C119.893 20.9185 120.168 21.237 120.647 21.5194C121.854 21.9836 123.716 21.2439 124.938 20.8107C124.952 19.7594 125.034 17.7979 124.936 16.817C124.759 16.6874 124.509 16.6902 124.296 16.747C123.216 16.8439 121.736 16.9066 120.724 17.2382C119.335 17.6934 119.498 19.308 119.523 20.5132Z" fill="#B3B5BC"/>
<path d="M105.547 6.69083C107.708 6.61371 110.581 6.70578 112.046 8.59735C113.698 10.7308 113.162 14.4452 111.024 16.0743C109.381 17.3262 107.435 17.4278 105.461 17.6478C103.723 17.8151 101.57 17.4595 99.8261 17.2239C99.8476 17.9225 99.7588 18.525 99.7389 19.2188C99.6144 23.6653 104.563 23.0522 107.703 23.0372C108.475 23.0448 109.221 22.9836 109.99 22.9755C110.365 22.9716 110.571 23.062 110.68 23.4169C110.594 23.7652 110.478 24.5699 110.268 24.7749L110.256 24.7866C110.075 24.9632 109.704 25.0278 109.445 25.0374C106.057 25.1628 101.615 26.0416 98.7204 23.7632C97.7666 22.9532 96.9889 21.4189 96.9681 20.1692C96.8577 13.694 97.8995 7.33221 105.547 6.69083ZM99.973 15.5991C101.198 15.637 102.363 15.7244 103.572 15.9283C103.683 15.9472 103.96 15.9345 104.078 15.9299C106.085 15.4838 108.408 15.8794 109.717 13.8958C110.623 12.5232 110.534 10.4847 109.059 9.52264C108.279 9.01433 107.225 9.03303 106.324 9.01774C104.468 9.07632 103.385 9.12552 101.977 10.5651C100.789 11.7793 100.27 13.9394 99.973 15.5991Z" fill="#B3B5BC"/>
<path d="M68.2128 6.67384C68.8598 6.66627 69.9012 6.60785 70.5164 6.76757C70.5433 6.77547 70.572 6.78676 70.5754 6.82031C70.8024 9.0708 69.1965 12.1271 68.3188 13.9723L65.2523 20.3243C64.4986 21.8619 63.6504 23.485 63.0315 25.0702C62.1322 25.1365 60.8802 25.1017 59.9542 25.1012C59.8684 23.6709 59.5152 22.5323 59.2631 21.1477L58.3341 15.7468C58.0785 14.3323 57.8056 13.1903 57.5895 11.7307C56.9263 12.6867 55.9419 15.3425 55.4117 16.549L52.9489 22.1623C52.5018 23.1936 52.0817 24.0212 51.711 25.0916C50.7416 25.1181 49.6816 25.0972 48.7052 25.0973C48.6381 24.4774 48.4403 23.6947 48.3335 23.0374C47.8435 20.0203 47.1553 17.0749 46.667 14.0444C46.4374 12.6187 46.1268 11.6242 45.9528 10.0825C45.7623 9.38167 45.6783 8.42862 45.4223 7.6849C45.3552 7.4901 45.3868 7.24514 45.5019 7.06178C45.9053 6.75233 47.6494 6.90755 48.2685 6.91596C48.4832 7.72462 48.4786 8.71024 48.6411 9.52826C49.1733 12.2073 49.5544 14.931 50.0258 17.6223C50.279 19.0674 50.5758 20.3846 50.7469 21.8527C51.25 21.1807 51.746 19.7118 52.103 18.8611L55.4385 10.9607C55.749 10.2155 56.7406 7.63578 57.102 7.10807C57.5229 6.80047 58.6212 6.90034 59.1772 6.90994C59.2213 7.42125 59.525 9.30472 59.6582 9.70767C60.0394 10.8611 61.5333 21.5915 61.9763 21.9399C61.8378 22.073 67.1077 10.3263 67.2731 9.86007C67.5107 9.1893 67.7159 8.50748 67.8879 7.81694C67.9961 7.36344 67.8943 6.99433 68.2128 6.67384Z" fill="#B3B5BC"/>
<path d="M86.284 6.7753C87.1075 6.55452 90.1962 6.86892 91.2139 6.90213C91.9925 6.92754 93.2426 7.19382 94.1009 7.25192C94.0611 9.13423 94.4354 9.0754 92.6142 9.07772L88.7054 9.06891C84.0445 9.02728 83.6527 9.10107 83.1613 13.7806L83.5199 14.504C86.3837 15.7266 92.84 13.236 93.3845 17.9459C93.5547 19.418 93.2808 20.1922 92.9645 21.5713C92.288 24.5238 89.6459 25.1313 86.8053 25.2965C84.8746 25.4825 82.4667 25.0204 80.4884 25.056C80.0917 25.0631 79.2842 24.9564 79.0676 24.5978C79.0156 24.1068 79.0554 23.1295 79.7538 23.0566C82.7065 22.7483 86.5364 23.6077 89.2839 22.5027C90.4809 22.0211 90.5249 20.2219 90.8403 19.0575C90.7125 18.6052 90.6063 18.1722 90.2485 17.8378C88.6282 16.3226 83.6834 18.3436 81.3814 16.2914C80.824 15.7943 80.6305 15.2777 80.5919 14.5427C80.4935 12.6676 80.7917 9.93172 82.088 8.49587C83.1181 7.35451 84.7965 6.85002 86.284 6.7753Z" fill="#B3B5BC"/>
<path d="M75.0548 6.93322C75.7338 6.87311 76.9771 6.89281 77.6837 6.88379C76.8577 12.9725 75.9147 19.0447 74.8554 25.0971L72.084 25.0993C72.2311 23.3752 74.7697 7.21559 75.0548 6.93322Z" fill="#B3B5BC"/>
<path d="M76.5543 0.0378993C77.2248 0.0114525 78.1522 -0.0230514 78.795 0.114978C78.8147 1.59614 78.7179 1.91626 78.4523 3.38204C78.1792 3.60003 77.9268 3.83105 77.5926 3.93427C77.2422 3.96951 75.9844 4.02136 75.7607 3.90397C75.0102 3.51035 75.6403 1.2875 75.8622 0.68169C76.0046 0.292692 76.2517 0.161106 76.5543 0.0378993Z" fill="#B3B5BC"/>
<path d="M0 2.91624C0.510864 1.92256 1.13851 0.61566 2.27866 0.311505C3.87984 -0.115644 6.38856 0.0208955 8.02843 0.0203271L15.3463 0.0191862L20.4805 0.0201743C22.7181 0.020903 25.9551 -0.21794 26.5784 2.56556C27.1066 4.9244 26.7453 8.02283 26.8953 10.5025L31.8078 10.5028C33.5787 10.5021 35.4518 10.1961 36.7974 11.5999C37.6443 12.4834 37.8352 13.3044 37.8655 14.4969L37.8487 22.2003C37.8487 22.5661 37.8279 24.923 37.8943 25.1637C37.4292 28.8757 34.8529 28.8299 32.3393 28.9291C31.8741 28.9475 32.0184 31.3845 32.0284 32H28.6726C28.3689 31.5836 27.1898 30.9361 26.7147 30.5953C24.5809 29.0647 24.3553 28.8439 21.786 28.8542L17.2787 28.8758C15.5433 28.8844 13.7161 29.103 12.3029 27.8858C11.8179 27.4663 11.463 26.9166 11.2801 26.3017C10.9775 25.2819 11.1318 21.7814 11.0214 20.3423C9.68153 20.9558 8.27985 22.3153 6.92005 22.5641C5.68258 22.7907 5.81124 19.0731 5.79575 18.4428C3.86456 18.2184 1.7639 18.7042 0.512562 16.5764C0.297035 16.21 0.26518 15.8741 0 15.4652V2.91624ZM2.59232 15.6224C4.92102 17.2862 7.59494 14.6459 7.96789 17.2904C8.02076 17.6654 8.05392 18.9244 8.06702 19.3752C9.4179 18.7303 11.5728 17.0156 12.6609 16.3432C13.396 15.889 18.8908 16.0626 20.1294 16.0642C21.2595 16.0617 22.4879 16.0813 23.6082 16.0187L24.25 15.4572C24.3692 15.1278 24.494 14.79 24.5299 14.4397C24.6556 13.2115 24.7952 4.03013 24.4872 3.36694C24.2624 2.88288 23.9245 2.53185 23.4188 2.34489C22.8187 2.12299 5.24418 2.14118 3.60322 2.2681C2.5439 2.58338 2.09815 3.39033 2.1828 4.42255C2.3711 6.71851 1.68136 13.9203 2.59232 15.6224ZM13.3909 25.7164C14.2241 26.7696 14.6502 26.5209 15.7664 26.6226C16.9982 26.7349 24.3293 26.3399 24.9353 26.7868C26.5513 27.5592 28.2752 29.0759 29.7402 29.8401C29.7853 29.2381 29.6843 27.3079 30.171 26.863C30.9494 26.1516 34.7777 27.1358 35.2411 26.0969C35.9582 23.9353 35.4954 21.2127 35.6108 18.913C35.6861 17.4121 35.5944 15.8541 35.5671 14.3666C35.5466 13.2503 34.7987 12.7367 33.7521 12.7175C31.4766 12.6758 29.178 12.6825 26.8976 12.7127C26.9435 16.6649 26.3278 18.301 22.0805 18.4783C20.7548 18.5337 14.0809 18.2941 13.4848 18.6491C13.3037 19.0746 13.3413 24.8498 13.3909 25.7164Z" fill="#B3B5BC"/>
<path d="M157.637 6.83115C157.804 7.31088 157.975 7.92984 158.341 8.27603C158.505 8.31525 158.629 8.33478 158.783 8.23938C159.89 7.55852 160.679 6.90348 162.005 6.68165C166.329 5.95853 168.976 8.5387 169.592 12.6869C169.718 13.5314 169.562 14.4821 169.711 15.3529C169.811 15.3864 169.896 15.3967 170 15.4128V16.8055L169.7 16.6707C169.632 17.5207 169.67 18.387 169.608 19.2335C169.177 25.1388 164.186 26.4405 159.273 24.5605C158.948 24.4364 158.703 24.3466 158.393 24.1577L158.38 31.9998H153.291C153.177 29.5142 153.271 26.1872 153.271 23.6289L153.263 6.83797C154.721 6.84916 156.179 6.84688 157.637 6.83115ZM158.385 11.7082C158.382 12.7701 158.283 19.7347 158.505 20.217C159.06 20.7758 160.811 21.0394 161.594 21.0422L161.964 21.0407C162.864 20.8524 163.387 20.6456 163.895 19.8313C164.925 18.1803 164.676 15.9645 164.555 14.1116C164.438 12.3301 163.374 10.5441 161.365 10.7543C160.098 10.8995 159.551 11.215 158.385 11.7082Z" fill="#B3B5BC"/>
<path d="M137.975 6.83441C138.075 7.18589 138.18 7.53057 138.373 7.86609C138.734 8.49115 139.028 8.27352 139.53 7.97121C140.045 7.66117 140.577 7.35345 141.109 7.07401C141.98 6.57791 142.847 6.66061 143.762 6.60972C146.509 6.45688 148.665 8.23787 149.419 10.8241C149.638 11.5748 149.859 12.419 150.017 13.1926C150.081 16.1891 150.396 19.7803 148.988 22.5111C147.035 26.2997 142.052 25.6479 138.809 24.25C138.754 26.8035 138.789 29.4399 138.792 31.9995H133.644C133.644 23.675 133.738 15.1423 133.634 6.83643C135.08 6.84738 136.527 6.8467 137.975 6.83441ZM138.788 11.6865C138.787 12.6628 138.69 19.9235 138.927 20.2593C139.642 20.8551 141.386 21.0685 142.296 21.0339C145.574 20.4184 145.136 16.2493 144.897 13.7451C144.745 12.1534 143.513 10.6125 141.791 10.7557C140.444 10.888 140.048 11.1579 138.788 11.6865Z" fill="#B3B5BC"/>
</svg>
