<svg width="110" height="32" viewBox="0 0 110 32" fill="none" xmlns="http://www.w3.org/2000/svg">
<path d="M45.9915 6.16954C53.054 5.29802 59.4749 10.3803 60.3147 17.5065C61.1544 24.6318 56.0939 31.09 49.0257 31.9127C41.9919 32.7304 35.6263 27.6575 34.7903 20.566C33.9545 13.4751 38.9634 7.03741 45.9915 6.16954ZM55.135 18.3639C54.764 14.1173 51.0419 10.984 46.8333 11.3736C42.6464 11.7615 39.559 15.491 39.928 19.7154C40.2971 23.94 43.9843 27.0682 48.1741 26.7115C52.3853 26.3527 55.506 22.6104 55.135 18.3639Z" fill="#B3B5BC"/>
<path d="M97.6347 6.33712C97.873 6.32026 98.1112 6.30807 98.3494 6.30064C105.281 6.03049 109.779 11.4847 109.998 18.1785C110.052 19.8536 109.144 21.0177 107.419 21.0143C105.55 21.0109 103.647 21.0597 101.781 21.0274C100.7 21.0088 98.9399 21.141 97.9303 20.92C97.531 20.8332 97.1644 20.6322 96.8756 20.3403C96.0033 19.4605 95.7753 17.8908 96.7214 16.962C97.0606 16.6309 97.4818 16.3975 97.9412 16.2874C98.6662 16.1159 103.412 16.191 104.516 16.1937C103.772 13.9838 102.591 12.0162 100.196 11.3718C98.6675 10.9869 96.7275 11.2141 95.378 12.0616C91.472 14.5153 91.1294 19.9692 93.3185 23.6421C95.5172 26.818 99.516 27.7928 102.879 25.9705C104.253 25.2256 105.232 23.7 107.096 24.9702C107.679 25.3743 108.073 26.0028 108.181 26.7085C108.276 27.3612 108.105 28.0248 107.707 28.5481C106.522 30.1281 103.027 31.4375 101.081 31.6695C97.5228 32.095 94.2373 31.3879 91.3799 29.1663C88.7532 27.1243 87.046 24.1075 86.6391 20.7885C85.9565 15.2864 88.5627 9.68233 93.696 7.36568C95.0155 6.77016 96.2074 6.50855 97.6347 6.33712Z" fill="#B3B5BC"/>
<path d="M72.6432 6.68662C73.3463 6.61296 74.216 6.62948 74.9136 6.71141C77.8141 7.05288 80.4572 8.55578 82.2483 10.8814C83.2361 12.1633 83.9303 13.6497 84.2805 15.2345C84.8034 17.6172 84.4539 21.677 84.5529 24.2649C84.6047 25.6143 84.5795 27.5069 84.5139 28.881C84.4805 29.5957 83.9446 30.3977 83.3378 30.8177C82.7282 31.2417 81.9773 31.4042 81.249 31.27C78.6953 30.7812 78.9834 28.1974 78.9875 26.2484L79.0025 19.7397C79.0045 18.6692 79.066 16.7704 78.8837 15.7749C78.7506 15.0348 78.466 14.3312 78.0489 13.7075C77.1847 12.418 75.9758 11.7344 74.4829 11.4535C73.7839 11.3523 73.1074 11.3454 72.4166 11.5051C71.5401 11.7172 70.7326 12.1516 70.0698 12.7671C67.8199 14.8255 68.299 17.5429 68.3031 20.4213L68.3134 26.7475C68.3148 27.8353 68.439 29.2982 67.8308 30.2125C67.3864 30.8693 66.6963 31.3154 65.9188 31.4462C65.1372 31.5777 64.4764 31.3629 63.8436 30.9065C62.8518 30.1939 62.7186 29.1523 62.7227 28.0218C62.7275 26.6711 62.735 25.3224 62.7364 23.9737L62.7303 19.6413C62.7275 18.1756 62.6634 16.652 62.9815 15.2214C63.3501 13.5829 64.0846 12.0504 65.129 10.7416C67.0492 8.33754 69.6274 7.01984 72.6432 6.68662Z" fill="#B3B5BC"/>
<path d="M9.81492 6.48047C10.2562 6.48391 10.6973 6.50319 11.1372 6.5383C12.9584 6.68081 17.2016 7.70385 18.3495 9.12276C18.7575 9.6267 18.9361 10.2807 18.8414 10.9238C18.6716 12.068 17.4954 13.0139 16.3397 12.826C15.459 12.6738 14.6487 12.0948 13.8313 11.7823C11.7449 10.9912 9.08254 10.1616 7.08725 11.6095C6.11656 12.3137 6.02284 13.9344 6.91086 14.6703C8.83618 16.2669 11.7626 16.5904 14.0205 17.5908C15.5824 18.2826 16.9766 18.9243 18.0762 20.2778C20.2766 22.9924 19.4642 27.6594 16.759 29.7406C14.484 31.4914 11.5112 31.9368 8.74737 31.6139C6.30476 31.4108 3.86584 30.4876 1.75894 29.2566C0.813921 28.7038 0.00508758 28.0959 3.62069e-05 26.8897C-0.00358167 26.2322 0.264073 25.6023 0.738901 25.1521C2.08004 23.8798 3.35674 24.8973 4.56217 25.6044C6.31357 26.6315 8.48347 27.2057 10.5064 27.2512C11.4301 27.2849 12.98 27.0102 13.6283 26.2391C15.1793 24.3934 13.8092 22.949 12.1403 22.2502C8.86744 20.8795 4.63351 20.5449 2.34988 17.5976C0.738765 15.5185 0.936246 11.8146 2.49193 9.76302C4.32039 7.30111 6.89413 6.592 9.81492 6.48047Z" fill="#B3B5BC"/>
<path d="M24.9043 0.00241623C24.9517 0.000695089 24.9991 -6.45644e-05 25.0465 4.28113e-06C25.8076 0.00365309 26.5679 0.286059 27.0987 0.846875C27.4334 1.20418 27.6695 1.64369 27.7835 2.12168C27.9762 2.89957 27.8877 5.83996 27.8809 6.7859C28.8891 6.80311 31.9332 6.69571 32.6987 6.88986C33.0958 6.98899 33.4604 7.1914 33.7561 7.47642C34.2482 7.95145 34.534 8.60411 34.5514 9.29119C34.5608 9.96519 34.3062 10.6158 33.8428 11.1018C33.5437 11.413 33.1675 11.6388 32.7531 11.7552C31.99 11.972 28.9041 11.8846 27.8829 11.8832L27.8768 19.47C27.8741 21.2572 27.5684 23.7033 28.5902 25.2007C30.235 27.6124 32.9228 25.4843 34.5206 27.8161L34.5759 27.8988C34.6693 28.0922 34.771 28.3256 34.822 28.5328C34.9988 29.2488 34.8731 30.0061 34.475 30.625C33.6474 31.9035 32.367 31.8209 31.0432 31.8112C29.2291 31.7982 27.5175 31.268 26.0286 30.2188C24.1384 28.8853 22.8578 26.8434 22.4738 24.5494C22.2697 23.3219 22.3316 21.2696 22.3321 19.9512L22.3358 12.6274L22.3283 6.07858C22.3264 4.92377 22.292 3.72372 22.3614 2.57249C22.4498 1.10477 23.5228 0.234563 24.9043 0.00241623Z" fill="#B3B5BC"/>
</svg>
